<?xml version="1.0" encoding="UTF-8"?>
<svg width="510px" height="139px" viewBox="0 0 510 139" version="1.1" xmlns="http://www.w3.org/2000/svg" xmlns:xlink="http://www.w3.org/1999/xlink">
    <!-- Generator: Sketch 63.1 (92452) - https://sketch.com -->
    <title>lockup</title>
    <desc>Created with Sketch.</desc>
    <defs>
        <linearGradient x1="65.9603995%" y1="0%" x2="29.4293258%" y2="100%" id="linearGradient-1">
            <stop stop-color="#000000" stop-opacity="0" offset="0%"></stop>
            <stop stop-color="#FFFFFF" stop-opacity="0" offset="29.1571508%"></stop>
            <stop stop-color="#FFFFFF" offset="100%"></stop>
        </linearGradient>
        <linearGradient x1="50%" y1="12.092178%" x2="79.6747679%" y2="62.4528758%" id="linearGradient-2">
            <stop stop-color="#FFFFFF" stop-opacity="0.674852491" offset="0%"></stop>
            <stop stop-color="#FFFFFF" offset="100%"></stop>
        </linearGradient>
    </defs>
    <g id="Page-1" stroke="none" stroke-width="1" fill="none" fill-rule="evenodd">
        <g id="Group-5" transform="translate(-79.000000, -120.000000)" fill-rule="nonzero">
            <g id="lockup" transform="translate(79.000000, 120.000000)">
                <path d="M312.737288,114 C321.830508,114 327.220219,111.824933 329.861253,110.652778 C332.502287,109.480623 334.260654,108.252108 335.290656,107.442836 C336.320657,106.633565 340.029448,103.10503 337.055694,99.1575173 C334.081941,95.210005 329.03432,96.9676491 327.501188,97.806382 C325.968056,98.6451148 323.276324,99.9420052 320.709368,100.844762 C318.142412,101.747518 316.096045,101.930147 312.737288,101.930147 C308.149718,101.930147 304.75,100.616422 302.538136,97.9889706 C300.326271,95.3615196 299.220339,91.995098 299.220339,87.8897059 C299.220339,87.0739263 299.881659,86.4126063 300.697439,86.4126063 C300.735818,86.4126063 300.774183,86.4141021 300.812448,86.4170703 C317.946478,87.7551962 328.645432,87.1234654 332.909311,84.5218779 C339.500978,80.5 339.500978,76.859804 339.500978,72.0210164 C339.500978,67.1822289 338.521893,60.2398897 333.565678,54.9439338 C328.609463,49.6479779 321.584746,47 312.491525,47 C303.152542,47 295.902542,49.7095588 290.741525,55.1286765 C285.580508,60.5477941 283,67.7322304 283,76.6819853 L283,85.4264706 C283,94.3762255 285.68291,101.375919 291.048729,106.425551 C296.414548,111.475184 303.644068,114 312.737288,114 Z M320.973562,74.0819382 L303.151885,74.0180062 C301.068014,74.0105307 299.382657,72.3191164 299.382657,70.2352318 L299.382657,70.2352318 L299.382657,70.2352318 C299.627565,65.3392448 301.257971,63.5972179 302.638194,62.348545 C304.018417,61.0998721 307.499976,59.0977551 312.120347,59.0977551 C316.493199,59.0977551 320.577628,61.184512 322.112767,62.6182359 C323.647906,64.0519599 325.382657,65.6016822 325.382657,69.6886315 C325.382657,72.1150034 323.415694,74.0819665 320.989322,74.0819665 C320.984068,74.0819665 320.978815,74.0819571 320.973562,74.0819382 Z M367.717608,108 L367.717608,83.2290076 L367.717608,83.2290076 C367.717608,70.9071247 373.331118,64.7461832 384.55814,64.7461832 C386.459027,64.7461832 388,63.2052098 388,61.3043227 L388,49.1554408 C388,48.0692197 387.119444,47.1886634 386.033223,47.1886634 L386.033223,47.1886634 L386.033223,47.1886634 C375.133998,47.1886634 368.741971,51.5302665 366.857143,60.2134726 L366.857143,52.6848466 C366.857143,49.9234229 364.618567,47.6848466 361.857143,47.6848466 L356,47.6848466 C353.238576,47.6848466 351,49.9234229 351,52.6848466 L351,108 C351,110.761424 353.238576,113 356,113 L362.717608,113 C365.479032,113 367.717608,110.761424 367.717608,108 Z M412,107 L412,52.1238674 C412,49.3624437 409.761424,47.1238674 407,47.1238674 L400,47.1238674 C397.238576,47.1238674 395,49.3624437 395,52.1238674 L395,107 C395,109.761424 397.238576,112 400,112 L407,112 C409.761424,112 412,109.761424 412,107 Z M239.3159,114 C246.63947,114 246.762901,113.302083 250.301255,111.90625 C253.839609,110.510417 256.349372,108.745098 257.830544,106.610294 L257.830544,107.522059 C257.830544,110.283483 260.06912,112.522059 262.830544,112.522059 L269,112.522059 C271.761424,112.522059 274,110.283483 274,107.522059 L274,71.6323529 L274,71.6323529 C274,64.2426471 271.510809,58.2898284 266.532427,53.7738971 C261.554045,49.2579657 255.032775,47 246.968619,47 C239.974198,47 231.360475,50.0157282 227.031405,52.8308272 C222.702335,55.6459262 220.207084,59.3723792 222.560695,63.4629014 C224.914307,67.5534237 229.698294,66.9705757 233.272624,64.6750803 C236.846953,62.3795849 240.728777,60.5701111 246.077452,60.5701111 C249.451232,60.5701111 252.173291,61.0199142 254.189331,62.9494485 C256.20537,64.8789828 257.213389,67.3627451 257.213389,70.4007353 L257.213389,79.1452206 C252.852162,75.5324755 247.421199,73.7261029 240.920502,73.7261029 C232.938633,73.7261029 226.623082,75.4298407 221.973849,78.8373162 C217.324616,82.2447917 215,87.314951 215,94.0477941 C215,100.205882 217.221757,105.070772 221.665272,108.642463 C226.108787,112.214154 231.992329,114 239.3159,114 Z M446.3159,114 C453.63947,114 453.762901,113.302083 457.301255,111.90625 C460.839609,110.510417 463.349372,108.745098 464.830544,106.610294 L464.830544,107.522059 C464.830544,110.283483 467.06912,112.522059 469.830544,112.522059 L476,112.522059 C478.761424,112.522059 481,110.283483 481,107.522059 L481,71.6323529 L481,71.6323529 C481,64.2426471 478.510809,58.2898284 473.532427,53.7738971 C468.554045,49.2579657 462.032775,47 453.968619,47 C446.974198,47 438.360475,50.0157282 434.031405,52.8308272 C429.702335,55.6459262 426.311661,59.89022 428.665272,63.9807422 C431.018883,68.0712645 436.698294,66.9705757 440.272624,64.6750803 C443.846953,62.3795849 447.728777,60.5701111 453.077452,60.5701111 C456.451232,60.5701111 459.173291,61.0199142 461.189331,62.9494485 C463.20537,64.8789828 464.213389,67.3627451 464.213389,70.4007353 L464.213389,79.1452206 C459.852162,75.5324755 454.421199,73.7261029 447.920502,73.7261029 C439.938633,73.7261029 433.623082,75.4298407 428.973849,78.8373162 C424.324616,82.2447917 422,87.314951 422,94.0477941 C422,100.205882 424.221757,105.070772 428.665272,108.642463 C433.108787,112.214154 438.992329,114 446.3159,114 Z M450.380952,103 C446.749206,103 443.777778,102.134444 441.466667,100.403333 C439.155556,98.6722222 438,96.3288889 438,93.3733333 C438,90.3333333 439.134921,88.0111111 441.404762,86.4066667 C443.674603,84.8022222 446.831746,84 450.87619,84 C454.755556,84 457.912698,84.8233333 460.347619,86.47 C462.78254,88.1166667 464,90.3755556 464,93.2466667 C464,96.0333333 462.65873,98.3555556 459.97619,100.213333 C457.293651,102.071111 454.095238,103 450.380952,103 Z M243.380952,103 C239.749206,103 236.777778,102.134444 234.466667,100.403333 C232.155556,98.6722222 231,96.3288889 231,93.3733333 C231,90.3333333 232.134921,88.0111111 234.404762,86.4066667 C236.674603,84.8022222 239.831746,84 243.87619,84 C247.755556,84 250.912698,84.8233333 253.347619,86.47 C255.78254,88.1166667 257,90.3755556 257,93.2466667 C257,96.0333333 255.65873,98.3555556 252.97619,100.213333 C250.293651,102.071111 247.095238,103 243.380952,103 Z M510,108 L510,31 C510,28.2385763 507.761424,26 505,26 L498,26 C495.238576,26 493,28.2385763 493,31 L493,108 C493,110.761424 495.238576,113 498,113 L505,113 C507.761424,113 510,110.761424 510,108 Z" id="aerial-copy-3" fill="#FFFFFF"></path>
                <g id="logo_white">
                    <path d="M94.007548,3.64 C109.327548,14.29 109.837548,37.45 106.757548,54.09 C102.007548,79.8 87.007548,101.55 67.307548,118.32 C52.427548,130.98 26.307548,147.09 8.35754798,132.05 C-6.99245202,119.19 -1.17245202,81.81 25.607548,44 C52.797548,5.68 79.007548,-6.79 94.007548,3.64 Z" id="Path" fill="url(#linearGradient-1)"></path>
                    <path d="M151.947548,134 C129.557548,147.54 100.277548,123.09 80.227548,104.53 C43.227548,69.59 16.517548,49.94 5.16754798,82.93 C15.007548,52.87 51.857548,-7.10542736e-14 82.077548,-7.10542736e-14 C122.687548,-7.10542736e-14 190.907548,110.39 151.947548,134 Z" id="Path" fill="url(#linearGradient-2)"></path>
                </g>
            </g>
        </g>
    </g>
</svg>