<?xml version="1.0" encoding="UTF-8"?>
<svg width="374px" height="92px" viewBox="0 0 374 92" version="1.1" xmlns="http://www.w3.org/2000/svg" xmlns:xlink="http://www.w3.org/1999/xlink">
    <title>@Bstract</title>
    <defs>
        <path d="M47.6275909,72.9705455 C50.0964394,72.9705455 52.5556439,72.719803 55.0052045,72.2183182 C57.4547652,71.7168333 59.5475,71.0417576 61.2834091,70.1930909 L61.2834091,70.1930909 L59.1424545,64.0016818 C55.5934848,65.6990152 51.755197,66.5476818 47.6275909,66.5476818 C43.5771364,66.5476818 39.9992348,65.6893712 36.8938864,63.97275 C33.7885379,62.2561288 31.387197,59.8547879 29.6898636,56.7687273 C27.9925303,53.6826667 27.1438636,50.1915606 27.1438636,46.2954091 C27.1438636,42.4764091 28.0118182,39.0335227 29.7477273,35.96675 C31.4836364,32.8999773 33.923553,30.4986364 37.0674773,28.7627273 C40.2114015,27.0268182 43.8085909,26.1588636 47.8590455,26.1588636 C51.9480758,26.1588636 55.5549091,26.9593106 58.6795455,28.5602045 C61.8041818,30.1610985 64.2248106,32.3888485 65.9414318,35.2434545 C67.658053,38.0980606 68.5163636,41.3577121 68.5163636,45.0224091 C68.5163636,51.0016515 67.3012273,53.9912727 64.8709545,53.9912727 C64.0994394,53.9912727 63.4822273,53.7212424 63.0193182,53.1811818 C62.5564091,52.6411212 62.3249545,51.7538788 62.3249545,50.5194545 L62.3249545,50.5194545 L62.3249545,32.8710455 L52.8931818,32.8710455 L52.8931818,35.7063636 C50.9258182,33.5075455 48.244803,32.4081364 44.8501364,32.4081364 C42.5355909,32.4081364 40.3946364,33.0060606 38.4272727,34.2019091 C36.4599091,35.3977576 34.8975909,37.0950909 33.7403182,39.2939091 C32.5830455,41.4927273 32.0044091,44.0194394 32.0044091,46.8740455 C32.0044091,49.7286515 32.5926894,52.2553636 33.76925,54.4541818 C34.9458106,56.653 36.5177727,58.3599773 38.4851364,59.5751136 C40.4525,60.79025 42.5741667,61.3978182 44.8501364,61.3978182 C49.209197,61.3978182 52.3338333,59.7197727 54.2240455,56.3636818 C54.9184091,58.0224394 55.9985303,59.2761515 57.4644091,60.1248182 C58.9302879,60.9734848 60.6854848,61.3978182 62.73,61.3978182 C65.1988485,61.3978182 67.3880227,60.7516742 69.2975227,59.4593864 C71.2070227,58.1670985 72.7114773,56.2768864 73.8108864,53.78875 C74.9102955,51.3006136 75.46,48.3206364 75.46,44.8488182 C75.46,40.1425758 74.2930833,35.8799545 71.95925,32.0609545 C69.6254167,28.2419545 66.3657652,25.2330455 62.1802955,23.0342273 C57.9948258,20.8354091 53.2210758,19.736 47.8590455,19.736 C42.2269848,19.736 37.2603561,20.8932727 32.9591591,23.2078182 C28.6579621,25.5223636 25.330803,28.6952197 22.9776818,32.7263864 C20.6245606,36.757553 19.448,41.2805606 19.448,46.2954091 C19.448,51.3488333 20.6149167,55.9007727 22.94875,59.9512273 C25.2825833,64.0016818 28.5808106,67.1841818 32.8434318,69.4987273 C37.106053,71.8132727 42.0341061,72.9705455 47.6275909,72.9705455 Z M108.848,71 C115.568,71 120.704,69.8 124.256,67.4 C127.808,65 129.584,61.592 129.584,57.176 C129.584,54.152 128.768,51.572 127.136,49.436 C125.504,47.3 123.248,45.728 120.368,44.72 C122.528,43.616 124.196,42.116 125.372,40.22 C126.548,38.324 127.136,36.176 127.136,33.776 C127.136,29.744 125.456,26.54 122.096,24.164 C118.736,21.788 113.84,20.6 107.408,20.6 L107.408,20.6 L81.632,20.6 L81.632,71 L108.848,71 Z M105.536,40.616 L95.744,40.616 L95.744,30.896 L105.536,30.896 C110.336,30.896 112.736,32.504 112.736,35.72 C112.736,38.984 110.336,40.616 105.536,40.616 L105.536,40.616 Z M107.696,60.704 L95.744,60.704 L95.744,50.48 L107.696,50.48 C112.688,50.48 115.184,52.184 115.184,55.592 C115.184,59 112.688,60.704 107.696,60.704 L107.696,60.704 Z M150.536,71.648 C154.616,71.648 158.108,71.096 161.012,69.992 C163.916,68.888 166.112,67.364 167.6,65.42 C169.088,63.476 169.832,61.28 169.832,58.832 C169.832,55.856 169.052,53.54 167.492,51.884 C165.932,50.228 164.096,49.088 161.984,48.464 C159.872,47.84 157.208,47.288 153.992,46.808 C151.448,46.424 149.624,46.052 148.52,45.692 C147.416,45.332 146.864,44.696 146.864,43.784 C146.864,42.968 147.368,42.308 148.376,41.804 C149.384,41.3 150.968,41.048 153.128,41.048 C157.16,41.048 160.904,42.008 164.36,43.928 L164.36,43.928 L168.464,34.64 C166.592,33.584 164.264,32.768 161.48,32.192 C158.696,31.616 155.888,31.328 153.056,31.328 C149.072,31.328 145.652,31.892 142.796,33.02 C139.94,34.148 137.768,35.684 136.28,37.628 C134.792,39.572 134.048,41.792 134.048,44.288 C134.048,47.312 134.84,49.664 136.424,51.344 C138.008,53.024 139.892,54.176 142.076,54.8 C144.26,55.424 146.912,55.928 150.032,56.312 C152.48,56.648 154.268,56.996 155.396,57.356 C156.524,57.716 157.088,58.328 157.088,59.192 C157.088,60.056 156.62,60.716 155.684,61.172 C154.748,61.628 153.176,61.856 150.968,61.856 C148.568,61.856 146.144,61.532 143.696,60.884 C141.248,60.236 139.136,59.36 137.36,58.256 L137.36,58.256 L133.256,67.616 C135.176,68.816 137.72,69.788 140.888,70.532 C144.056,71.276 147.272,71.648 150.536,71.648 Z M193.16,71.648 C195.032,71.648 196.796,71.456 198.452,71.072 C200.108,70.688 201.512,70.136 202.664,69.416 L202.664,69.416 L199.28,59.84 C198.08,60.656 196.688,61.064 195.104,61.064 C193.856,61.064 192.86,60.668 192.116,59.876 C191.372,59.084 191,57.992 191,56.6 L191,56.6 L191,43.64 L199.928,43.64 L199.928,33.416 L191,33.416 L191,23.264 L177.32,23.264 L177.32,33.416 L171.632,33.416 L171.632,43.64 L177.32,43.64 L177.32,56.744 C177.32,61.688 178.688,65.408 181.424,67.904 C184.16,70.4 188.072,71.648 193.16,71.648 Z M221.6,71 L221.6,53.072 C221.6,49.808 222.428,47.384 224.084,45.8 C225.74,44.216 228.032,43.424 230.96,43.424 C231.776,43.424 232.808,43.496 234.056,43.64 L234.056,43.64 L234.056,31.328 C231.176,31.328 228.62,31.772 226.388,32.66 C224.156,33.548 222.344,34.88 220.952,36.656 L220.952,36.656 L220.952,31.976 L207.92,31.976 L207.92,71 L221.6,71 Z M252.128,71.648 C257.84,71.648 261.68,69.752 263.648,65.96 L263.648,65.96 L263.648,71 L276.392,71 L276.392,49.328 C276.392,43.232 274.688,38.708 271.28,35.756 C267.872,32.804 262.928,31.328 256.448,31.328 C253.328,31.328 250.22,31.724 247.124,32.516 C244.028,33.308 241.4,34.424 239.24,35.864 L239.24,35.864 L243.848,45.152 C245.192,44.096 246.824,43.268 248.744,42.668 C250.664,42.068 252.56,41.768 254.432,41.768 C259.712,41.768 262.472,43.832 262.712,47.96 L262.712,47.96 L254.936,47.96 C249.032,47.96 244.664,48.98 241.832,51.02 C239,53.06 237.584,55.928 237.584,59.624 C237.584,61.928 238.148,63.98 239.276,65.78 C240.404,67.58 242.072,69.008 244.28,70.064 C246.488,71.12 249.104,71.648 252.128,71.648 Z M255.944,63.008 C254.36,63.008 253.112,62.648 252.2,61.928 C251.288,61.208 250.832,60.248 250.832,59.048 C250.832,56.408 252.824,55.088 256.808,55.088 L256.808,55.088 L262.712,55.088 L262.712,58.472 C262.184,59.96 261.32,61.088 260.12,61.856 C258.92,62.624 257.528,63.008 255.944,63.008 Z M304.976,71.648 C309.392,71.648 313.208,70.7 316.424,68.804 C319.64,66.908 321.92,64.28 323.264,60.92 L323.264,60.92 L312.68,55.52 C310.904,59.024 308.312,60.776 304.904,60.776 C302.456,60.776 300.428,59.948 298.82,58.292 C297.212,56.636 296.408,54.344 296.408,51.416 C296.408,48.536 297.212,46.28 298.82,44.648 C300.428,43.016 302.456,42.2 304.904,42.2 C308.312,42.2 310.904,43.952 312.68,47.456 L312.68,47.456 L323.264,42.056 C321.92,38.696 319.64,36.068 316.424,34.172 C313.208,32.276 309.392,31.328 304.976,31.328 C300.656,31.328 296.792,32.18 293.384,33.884 C289.976,35.588 287.324,37.964 285.428,41.012 C283.532,44.06 282.584,47.528 282.584,51.416 C282.584,55.304 283.532,58.784 285.428,61.856 C287.324,64.928 289.976,67.328 293.384,69.056 C296.792,70.784 300.656,71.648 304.976,71.648 Z M345.872,71.648 C347.744,71.648 349.508,71.456 351.164,71.072 C352.82,70.688 354.224,70.136 355.376,69.416 L355.376,69.416 L351.992,59.84 C350.792,60.656 349.4,61.064 347.816,61.064 C346.568,61.064 345.572,60.668 344.828,59.876 C344.084,59.084 343.712,57.992 343.712,56.6 L343.712,56.6 L343.712,43.64 L352.64,43.64 L352.64,33.416 L343.712,33.416 L343.712,23.264 L330.032,23.264 L330.032,33.416 L324.344,33.416 L324.344,43.64 L330.032,43.64 L330.032,56.744 C330.032,61.688 331.4,65.408 334.136,67.904 C336.872,70.4 340.784,71.648 345.872,71.648 Z" id="path-1"></path>
        <filter x="-8.9%" y="-56.4%" width="117.9%" height="212.7%" filterUnits="objectBoundingBox" id="filter-2">
            <feOffset dx="0" dy="0" in="SourceAlpha" result="shadowOffsetOuter1"></feOffset>
            <feGaussianBlur stdDeviation="10" in="shadowOffsetOuter1" result="shadowBlurOuter1"></feGaussianBlur>
            <feColorMatrix values="0 0 0 0 0.417161922   0 0 0 0 0.249427356   0 0 0 0 0.526189389  0 0 0 0.347912342 0" type="matrix" in="shadowBlurOuter1"></feColorMatrix>
        </filter>
    </defs>
    <g id="Page-1" stroke="none" stroke-width="1" fill="none" fill-rule="evenodd">
        <g id="@Bstract" fill-rule="nonzero">
            <use fill="black" fill-opacity="1" filter="url(#filter-2)" xlink:href="#path-1"></use>
            <use fill="#000000" xlink:href="#path-1"></use>
        </g>
    </g>
</svg>