<?xml version="1.0" encoding="UTF-8"?>
<svg width="374px" height="92px" viewBox="0 0 374 92" version="1.1" xmlns="http://www.w3.org/2000/svg" xmlns:xlink="http://www.w3.org/1999/xlink">
    <title>@Bstract</title>
    <defs>
        <path d="M28.1795909,53.2345455 C30.6484394,53.2345455 33.1076439,52.983803 35.5572045,52.4823182 C38.0067652,51.9808333 40.0995,51.3057576 41.8354091,50.4570909 L41.8354091,50.4570909 L39.6944545,44.2656818 C36.1454848,45.9630152 32.307197,46.8116818 28.1795909,46.8116818 C24.1291364,46.8116818 20.5512348,45.9533712 17.4458864,44.23675 C14.3405379,42.5201288 11.939197,40.1187879 10.2418636,37.0327273 C8.5445303,33.9466667 7.69586364,30.4555606 7.69586364,26.5594091 C7.69586364,22.7404091 8.56381818,19.2975227 10.2997273,16.23075 C12.0356364,13.1639773 14.475553,10.7626364 17.6194773,9.02672727 C20.7634015,7.29081818 24.3605909,6.42286364 28.4110455,6.42286364 C32.5000758,6.42286364 36.1069091,7.22331061 39.2315455,8.82420455 C42.3561818,10.4250985 44.7768106,12.6528485 46.4934318,15.5074545 C48.210053,18.3620606 49.0683636,21.6217121 49.0683636,25.2864091 C49.0683636,31.2656515 47.8532273,34.2552727 45.4229545,34.2552727 C44.6514394,34.2552727 44.0342273,33.9852424 43.5713182,33.4451818 C43.1084091,32.9051212 42.8769545,32.0178788 42.8769545,30.7834545 L42.8769545,30.7834545 L42.8769545,13.1350455 L33.4451818,13.1350455 L33.4451818,15.9703636 C31.4778182,13.7715455 28.796803,12.6721364 25.4021364,12.6721364 C23.0875909,12.6721364 20.9466364,13.2700606 18.9792727,14.4659091 C17.0119091,15.6617576 15.4495909,17.3590909 14.2923182,19.5579091 C13.1350455,21.7567273 12.5564091,24.2834394 12.5564091,27.1380455 C12.5564091,29.9926515 13.1446894,32.5193636 14.32125,34.7181818 C15.4978106,36.917 17.0697727,38.6239773 19.0371364,39.8391136 C21.0045,41.05425 23.1261667,41.6618182 25.4021364,41.6618182 C29.761197,41.6618182 32.8858333,39.9837727 34.7760455,36.6276818 C35.4704091,38.2864394 36.5505303,39.5401515 38.0164091,40.3888182 C39.4822879,41.2374848 41.2374848,41.6618182 43.282,41.6618182 C45.7508485,41.6618182 47.9400227,41.0156742 49.8495227,39.7233864 C51.7590227,38.4310985 53.2634773,36.5408864 54.3628864,34.05275 C55.4622955,31.5646136 56.012,28.5846364 56.012,25.1128182 C56.012,20.4065758 54.8450833,16.1439545 52.51125,12.3249545 C50.1774167,8.50595455 46.9177652,5.49704545 42.7322955,3.29822727 C38.5468258,1.09940909 33.7730758,0 28.4110455,0 C22.7789848,0 17.8123561,1.15727273 13.5111591,3.47181818 C9.20996212,5.78636364 5.88280303,8.9592197 3.52968182,12.9903864 C1.17656061,17.021553 5.68434189e-14,21.5445606 5.68434189e-14,26.5594091 C5.68434189e-14,31.6128333 1.16691667,36.1647727 3.50075,40.2152273 C5.83458333,44.2656818 9.13281061,47.4481818 13.3954318,49.7627273 C17.658053,52.0772727 22.5861061,53.2345455 28.1795909,53.2345455 Z M89.4,51.264 C96.12,51.264 101.256,50.064 104.808,47.664 C108.36,45.264 110.136,41.856 110.136,37.44 C110.136,34.416 109.32,31.836 107.688,29.7 C106.056,27.564 103.8,25.992 100.92,24.984 C103.08,23.88 104.748,22.38 105.924,20.484 C107.1,18.588 107.688,16.44 107.688,14.04 C107.688,10.008 106.008,6.804 102.648,4.428 C99.288,2.052 94.392,0.864 87.96,0.864 L87.96,0.864 L62.184,0.864 L62.184,51.264 L89.4,51.264 Z M86.088,20.88 L76.296,20.88 L76.296,11.16 L86.088,11.16 C90.888,11.16 93.288,12.768 93.288,15.984 C93.288,19.248 90.888,20.88 86.088,20.88 L86.088,20.88 Z M88.248,40.968 L76.296,40.968 L76.296,30.744 L88.248,30.744 C93.24,30.744 95.736,32.448 95.736,35.856 C95.736,39.264 93.24,40.968 88.248,40.968 L88.248,40.968 Z M131.088,51.912 C135.168,51.912 138.66,51.36 141.564,50.256 C144.468,49.152 146.664,47.628 148.152,45.684 C149.64,43.74 150.384,41.544 150.384,39.096 C150.384,36.12 149.604,33.804 148.044,32.148 C146.484,30.492 144.648,29.352 142.536,28.728 C140.424,28.104 137.76,27.552 134.544,27.072 C132,26.688 130.176,26.316 129.072,25.956 C127.968,25.596 127.416,24.96 127.416,24.048 C127.416,23.232 127.92,22.572 128.928,22.068 C129.936,21.564 131.52,21.312 133.68,21.312 C137.712,21.312 141.456,22.272 144.912,24.192 L144.912,24.192 L149.016,14.904 C147.144,13.848 144.816,13.032 142.032,12.456 C139.248,11.88 136.44,11.592 133.608,11.592 C129.624,11.592 126.204,12.156 123.348,13.284 C120.492,14.412 118.32,15.948 116.832,17.892 C115.344,19.836 114.6,22.056 114.6,24.552 C114.6,27.576 115.392,29.928 116.976,31.608 C118.56,33.288 120.444,34.44 122.628,35.064 C124.812,35.688 127.464,36.192 130.584,36.576 C133.032,36.912 134.82,37.26 135.948,37.62 C137.076,37.98 137.64,38.592 137.64,39.456 C137.64,40.32 137.172,40.98 136.236,41.436 C135.3,41.892 133.728,42.12 131.52,42.12 C129.12,42.12 126.696,41.796 124.248,41.148 C121.8,40.5 119.688,39.624 117.912,38.52 L117.912,38.52 L113.808,47.88 C115.728,49.08 118.272,50.052 121.44,50.796 C124.608,51.54 127.824,51.912 131.088,51.912 Z M173.712,51.912 C175.584,51.912 177.348,51.72 179.004,51.336 C180.66,50.952 182.064,50.4 183.216,49.68 L183.216,49.68 L179.832,40.104 C178.632,40.92 177.24,41.328 175.656,41.328 C174.408,41.328 173.412,40.932 172.668,40.14 C171.924,39.348 171.552,38.256 171.552,36.864 L171.552,36.864 L171.552,23.904 L180.48,23.904 L180.48,13.68 L171.552,13.68 L171.552,3.528 L157.872,3.528 L157.872,13.68 L152.184,13.68 L152.184,23.904 L157.872,23.904 L157.872,37.008 C157.872,41.952 159.24,45.672 161.976,48.168 C164.712,50.664 168.624,51.912 173.712,51.912 Z M202.152,51.264 L202.152,33.336 C202.152,30.072 202.98,27.648 204.636,26.064 C206.292,24.48 208.584,23.688 211.512,23.688 C212.328,23.688 213.36,23.76 214.608,23.904 L214.608,23.904 L214.608,11.592 C211.728,11.592 209.172,12.036 206.94,12.924 C204.708,13.812 202.896,15.144 201.504,16.92 L201.504,16.92 L201.504,12.24 L188.472,12.24 L188.472,51.264 L202.152,51.264 Z M232.68,51.912 C238.392,51.912 242.232,50.016 244.2,46.224 L244.2,46.224 L244.2,51.264 L256.944,51.264 L256.944,29.592 C256.944,23.496 255.24,18.972 251.832,16.02 C248.424,13.068 243.48,11.592 237,11.592 C233.88,11.592 230.772,11.988 227.676,12.78 C224.58,13.572 221.952,14.688 219.792,16.128 L219.792,16.128 L224.4,25.416 C225.744,24.36 227.376,23.532 229.296,22.932 C231.216,22.332 233.112,22.032 234.984,22.032 C240.264,22.032 243.024,24.096 243.264,28.224 L243.264,28.224 L235.488,28.224 C229.584,28.224 225.216,29.244 222.384,31.284 C219.552,33.324 218.136,36.192 218.136,39.888 C218.136,42.192 218.7,44.244 219.828,46.044 C220.956,47.844 222.624,49.272 224.832,50.328 C227.04,51.384 229.656,51.912 232.68,51.912 Z M236.496,43.272 C234.912,43.272 233.664,42.912 232.752,42.192 C231.84,41.472 231.384,40.512 231.384,39.312 C231.384,36.672 233.376,35.352 237.36,35.352 L237.36,35.352 L243.264,35.352 L243.264,38.736 C242.736,40.224 241.872,41.352 240.672,42.12 C239.472,42.888 238.08,43.272 236.496,43.272 Z M285.528,51.912 C289.944,51.912 293.76,50.964 296.976,49.068 C300.192,47.172 302.472,44.544 303.816,41.184 L303.816,41.184 L293.232,35.784 C291.456,39.288 288.864,41.04 285.456,41.04 C283.008,41.04 280.98,40.212 279.372,38.556 C277.764,36.9 276.96,34.608 276.96,31.68 C276.96,28.8 277.764,26.544 279.372,24.912 C280.98,23.28 283.008,22.464 285.456,22.464 C288.864,22.464 291.456,24.216 293.232,27.72 L293.232,27.72 L303.816,22.32 C302.472,18.96 300.192,16.332 296.976,14.436 C293.76,12.54 289.944,11.592 285.528,11.592 C281.208,11.592 277.344,12.444 273.936,14.148 C270.528,15.852 267.876,18.228 265.98,21.276 C264.084,24.324 263.136,27.792 263.136,31.68 C263.136,35.568 264.084,39.048 265.98,42.12 C267.876,45.192 270.528,47.592 273.936,49.32 C277.344,51.048 281.208,51.912 285.528,51.912 Z M326.424,51.912 C328.296,51.912 330.06,51.72 331.716,51.336 C333.372,50.952 334.776,50.4 335.928,49.68 L335.928,49.68 L332.544,40.104 C331.344,40.92 329.952,41.328 328.368,41.328 C327.12,41.328 326.124,40.932 325.38,40.14 C324.636,39.348 324.264,38.256 324.264,36.864 L324.264,36.864 L324.264,23.904 L333.192,23.904 L333.192,13.68 L324.264,13.68 L324.264,3.528 L310.584,3.528 L310.584,13.68 L304.896,13.68 L304.896,23.904 L310.584,23.904 L310.584,37.008 C310.584,41.952 311.952,45.672 314.688,48.168 C317.424,50.664 321.336,51.912 326.424,51.912 Z" id="path-1"></path>
        <filter x="-8.9%" y="-56.4%" width="117.9%" height="212.7%" filterUnits="objectBoundingBox" id="filter-2">
            <feOffset dx="0" dy="0" in="SourceAlpha" result="shadowOffsetOuter1"></feOffset>
            <feGaussianBlur stdDeviation="10" in="shadowOffsetOuter1" result="shadowBlurOuter1"></feGaussianBlur>
            <feColorMatrix values="0 0 0 0 0.417161922   0 0 0 0 0.249427356   0 0 0 0 0.526189389  0 0 0 0.773895904 0" type="matrix" in="shadowBlurOuter1"></feColorMatrix>
        </filter>
    </defs>
    <g id="Page-1" stroke="none" stroke-width="1" fill="none" fill-rule="evenodd">
        <g id="Group" transform="translate(19.448000, 19.736000)" fill-rule="nonzero">
            <g id="@Bstract">
                <use fill="black" fill-opacity="1" filter="url(#filter-2)" xlink:href="#path-1"></use>
                <use fill="#FFFFFF" xlink:href="#path-1"></use>
            </g>
        </g>
    </g>
</svg>