<svg xmlns="http://www.w3.org/2000/svg" viewBox="0 0 1500 1312.25"><g id="Слой_2" data-name="Слой 2"><g id="Слой_1-2" data-name="Слой 1"><path d="M1260,316.58a8.76,8.76,0,0,0-1-.29q-2.7-.74-5,1.85c-.13.14-.26.31-.39.45-1.26,1.68-4.67,3.42-10.27,5.3-2.18.74-4.5,1.47-6.87,2.2a.07.07,0,0,1,0,0c-203.87,56.47-401.6,139.3-587.6,246.26q-28.57,16.42-56.47,33.41c15.3-78.57,31-158.89,46.33-231.22,14.33-67.47,16.53-78,18.79-94.87,54.83-54,95.52-114,89.32-202.7-3.66-52.34-26-63.31-57.06-73.14L677.57,0l-2,12.57c-.53,3.29-1.06,6.53-1.59,9.74-27.93,171.26-34,220.44-37,244.29-.14.95-.25,1.84-.37,2.74-17.39,16.7-36.39,33.17-56.05,50.21-3,2.65-6.14,5.33-9.27,8A42.55,42.55,0,0,0,557,315.75c-21.31-10.89-53.06-5.81-96.16,15.64,33.74-40.8,61.81-86.55,69.54-124.61,5.12-25.19,1.15-45.36-12-59.94a53.52,53.52,0,0,0-38.48-17.9,57.07,57.07,0,0,0-41.53,16C387,195,363.58,286.43,340.93,374.79c-22.26,87.14-45.3,177.18-94.12,225.27-55.8,54.85-111.93,61.69-158.18,19.3-37-33.77-61.55-93.65-65.8-160.06-4.72-73.2,15.73-141.4,57.45-192.09,48.85-59.26,111.46-78.53,159.38-49.15,46.25,28.35,73.51,101.77,30,201.81-22.84,52.56-35.21,49.9-35.32,49.79-4.81-1.59-9.53-11.06-13.13-24.83a198.57,198.57,0,0,1-5.53-32.56c-.5-17.73.78-37.31,4.78-55.32a25.89,25.89,0,0,0-3.44-3.19l-1.95-1.34a23,23,0,0,0-12.21-3.94,1,1,0,0,1-.42,0l-2,.28a4.18,4.18,0,0,0-2.54,1.79l-.33.31-.48.39-1.51,1.28a2.14,2.14,0,0,1-1.87.53,2.26,2.26,0,0,1-1.67-1l-1.76-2.74-.17-.3c-1.09-2.32-3.46-4.7-7-6.9a27.3,27.3,0,0,0-10.92-4.25,18.57,18.57,0,0,0-5.31,0c-3.6.39-7.6,3.66-11.79,9.69A133.9,133.9,0,0,0,142,372.33a340.64,340.64,0,0,0-11.56,33.35c-3.44,11.67-6.51,23.43-9.25,35a291.83,291.83,0,0,0-5.7,30.5c-1.2,8.94-1.56,15.28-1.14,19a18.68,18.68,0,0,0,1.14,5.5c2,2.74,5.14,5.11,9.36,7s8,2.79,11.45,2.43a10.77,10.77,0,0,0,3.88-.86,41.34,41.34,0,0,0,4.3-4.19,66.9,66.9,0,0,0,6.59-9.92c2.71-4.66,6.32-11.23,11-19.83s10.5-19.91,17.54-33.45c4.16-7.6,7.43-13.77,9.94-19.05a77.84,77.84,0,0,1,3.88-7.54c.06.75.11,1.51.17,2.32,2.1,25.61,7.68,50.07,17.9,64.87a41.29,41.29,0,0,0,7.07,8,1.15,1.15,0,0,0,.19.14,26.12,26.12,0,0,0,8.41,4.86,24.73,24.73,0,0,0,8.13,1.39c27.09,0,47.47-46.86,54.57-63.25,48.79-112.16,15.67-196-38.71-229.35-57.89-35.44-131.62-14.3-187.9,54-97,117.63-73.62,305.39,10.45,382.36,24.41,22.37,51.41,33.46,79.51,33.46,35.6,0,73-17.88,109-53.32,43.15-42.47,66.91-111.65,86.66-184.26,15.47-8.16,34.1-21.9,53.48-39.16l0,0c95-65.26,131.34-63.7,144.55-56.94a20.84,20.84,0,0,1,7.68,6.78c-1.92,1.71-3.85,3.41-5.75,5.11-43,38.32-100,106.61-145.22,173.94-53.29,79.51-73,129.95-58.68,149.94.25.37.53.7.78,1,0,.05.09.08.11.14,14.3,17.54,44.35,3.4,65.91-8.94C489,619.24,585.1,452.91,583.09,366.75a87.59,87.59,0,0,0-2.23-18.32c4.75-4.14,9.47-8.21,14.1-12.23,12.15-10.53,24.19-21,35.86-31.51-2.6,13-6.67,32.18-13.68,65.3-16.54,77.94-33.46,165-49.85,249.28-.14.76-.28,1.48-.42,2.24C418.68,714.23,285.05,819.38,168.62,934.86a55.59,55.59,0,0,0-12.13,61.58c14.42,33.71,43.88,86.94,73.79,138.63,20.44,35.33,41.08,69.93,57.28,97.08,6.73,11.28,12.71,21.34,17.65,29.66a134.76,134.76,0,0,0,46.58,47.34l1,.58,1.09.37a38.94,38.94,0,0,0,12.76,2.15,42.28,42.28,0,0,0,21.37-6c76-44,135.76-347.59,198.79-671.74A2526.21,2526.21,0,0,1,1222.11,353h.06l.87-.25c11.92-2.81,22.4-6.37,32.49-9.65,10.36-3.34,16.42-6.93,18.16-10.7a2.73,2.73,0,0,0,.65-1.89c.07-1.27-.86-3-2.72-5.26C1268.13,320.73,1264.25,317.81,1260,316.58ZM177.58,387.25l-.17.39-12,23.35a.05.05,0,0,0-.06.05c-3.66,6.79-6.68,12.43-9.1,17.12-2.74,5.31-3.22,6.7-3.27,6.93a2.42,2.42,0,0,1-2.43,1.73,1,1,0,0,0-.42-.06,2.43,2.43,0,0,1-1.79-2.73,67.51,67.51,0,0,1,2.21-9.41c.92-2.71,1.79-5.62,2.71-8.63.89-3.16,1.7-5.7,2.45-7.68a188.13,188.13,0,0,1,6.15-18.07c3-8,5.17-13.24,6.39-15.92l1-2.85a2.49,2.49,0,0,1,2.26-1.57,2.36,2.36,0,0,1,2.26,1.57l1,2.79a2.77,2.77,0,0,1,.16.59l.12.86c0,.76.14,1.57.19,2.43a12.65,12.65,0,0,0,1,3.16l.17.33,1.17,4.3a2.16,2.16,0,0,1,0,1.26Zm179.49,13.43c1.71-6.79,3.49-13.63,5.22-20.39,21.84-85.48,44.47-173.85,91.44-219.51a34.88,34.88,0,0,1,24.19-9.86,8.72,8.72,0,0,1,1.25.06A31.7,31.7,0,0,1,502,161.53c8.12,9.14,10.44,22.85,6.78,40.84C498.08,255.29,441.33,327.82,390,374.09l0,0-.11.09,0,0A342,342,0,0,1,357.07,400.68Zm204-33.43c1.78,77-91.08,237.47-160.23,277-27.95,15.94-36.69,14.32-37.84,14.05a.44.44,0,0,0-.14,0,.55.55,0,0,0-.11-.17c-3.88-6.26,5.36-44.41,59.15-124.61,43.37-64.66,97.64-130,139.11-167.57C561.06,366.36,561.06,366.8,561.09,367.25ZM695.17,29c18.12,7,27.31,16.53,29.63,49.57,4.86,69.35-21.73,119.28-62.64,164.58C666.49,211.08,675.11,152.1,695.17,29ZM474.2,1056.9C439,1192.69,406.34,1270.16,377,1287.17c-5.25,3-10,3.82-15,2.43a113.4,113.4,0,0,1-37.84-39c-4.92-8.35-10.92-18.43-17.68-29.74-16.4-27.48-37.34-62.59-58-98.25-29.27-50.64-57.87-102.36-71.78-134.84a33.64,33.64,0,0,1,7.4-37.28c111.8-110.93,239-211.75,377.06-299.92C533.16,794.6,504.22,940.83,474.2,1056.9Z"/><path d="M1500,268.76q-.4-4.53-5.21-1.55a6.36,6.36,0,0,1-2.72.75,31,31,0,0,0-4.73.93q-2.49.48-4.56,1c-13,3.16-26,6.28-39.07,8.71-36.11,6.71-75.63,14.78-109.58,22.64l-2.87.67-1.94.45h0l-5.08,1.2c-10.6,2.47-16.93,5.55-19,9.18a2.8,2.8,0,0,0-.8,1.83c-.17,1.25.61,3.07,2.28,5.46,3.11,4.8,6.74,8,10.89,9.61a10,10,0,0,0,.94.36c1.75.64,3.47.16,5.15-1.42l.43-.42c1.39-1.57,4.93-3,10.67-4.44,1.3-.32,2.64-.63,4-1l1-.22q6.49-1.47,13.9-2.84l27-6.25c23.17-4.94,46.39-9.57,69.49-13.77a132.83,132.83,0,0,0,34.33-11.33c3.3-1,6.57-5.62,10.32-9S1500.29,272.45,1500,268.76Z"/><path d="M738,300.53c-.39,1.76-.75,3.52-1.12,5.25-1,.42-2,.78-2.93,1.23-14.44,6-28.68,12.6-42.64,19.61a63.64,63.64,0,0,0-13,7.2,32.58,32.58,0,0,0-11.59,14.86,50.64,50.64,0,0,0-1.84,10.7,18,18,0,0,0,2.32,10.22,17.54,17.54,0,0,0,7.62,6.95,30,30,0,0,0,7.23,1.82,40.75,40.75,0,0,0,6,.72c1.76-.56,3.1-3,4.05-7.23s.86-7.74-.23-10.47l-.61-2.15-5.17-1.48c-1.48-.42-2.85-.79-4.07-1.15s-1.93-.67-2.1-1c-.06,0-.08,0-.08,0-.92-.25-.92-.67,0-1.18,1.09-1,3.86-2.68,8.41-5,4.22-2.16,32.73-12.85,39-15-16.62,69.06-26,114.31-25.56,141a60.41,60.41,0,0,0,1.18,13.8,30.29,30.29,0,0,0,8.24,15.47,46.55,46.55,0,0,0,8.37,5.58,16.87,16.87,0,0,0,9.56,1.93,16.4,16.4,0,0,0,8.76-3.85,28.44,28.44,0,0,0,4.31-5.45,38.85,38.85,0,0,0,2.84-4.8c.2-1.71-1.34-3.77-4.58-6.17s-6.25-3.66-9-3.77l-2-.31-3.21,3.82c-.89,1.09-1.73,2.13-2.51,3s-1.32,1.4-1.65,1.42c0,0,0,.06-.06.06-.55.67-.89.5-1-.47-.45-1.29-.84-4.31-1.09-9a66.16,66.16,0,0,1,.22-11.67,192.31,192.31,0,0,1,6.31-33.76c.34-1.09.67-2.18,1-3.22.75-4.49,1.62-9.38,2.63-14.71,1.67-8.91,3.63-18.35,5.75-28.18,1.56-7.18,3.24-14.58,5-22.09,3.77-16.2,7.82-33,11.95-49.8,4.22-1.67,8.46-3.32,12.71-4.91,1.17-.42,2.35-.87,3.55-1.29,9.44-3.46,19.29-7.79,29.07-11.37,3.35-1.06,6.62-2.17,9.8-3.26a1.29,1.29,0,0,1,.2-.09q3.56-1.25,6.95-2.51c10.14-3.74,16-7.46,17.46-11a2.42,2.42,0,0,0,.53-1.79c0-1.14-1.06-2.68-3-4.61-3.77-3.91-7.82-6.34-12.17-7.17a10,10,0,0,0-1-.2c-1.82-.34-3.44.36-4.89,2a4.73,4.73,0,0,1-.36.45c-1.09,1.53-4.11,3.23-9.08,5.19-2.6.78-6.45,2-9,2.88-11.5,3.54-23,7.45-34.29,11.59-.11,0-1,.39-1.4.53-.58.22-1.17.44-1.73.67l.11-.56c1.48-5.78,2.93-11.06,4.41-15.84s2.88-7.7,4.19-8.77l.37-.33a4.31,4.31,0,0,0,1.45-4.3c-.06-.28-.14-.53-.22-.81a19.69,19.69,0,0,0-6.79-10c-1.76-1.59-3.16-2.4-4.13-2.35a2,2,0,0,0-1.48.56q-4.49,2.22-8.47,15.53C742.67,280.28,740.24,290,738,300.53Z"/><path d="M826.9,352.14q-5.49.76-11.2,5.62A91.45,91.45,0,0,0,804.78,369a100.57,100.57,0,0,0-9.18,13q-3.9,6.66-6.37,11.06l-1.93,4.36,1.09-6.79q1.33-8.84,2.88-16.17c1-4.88,2.12-7.93,3.32-9.13,1.48-1.54,1.93-3.16,1.37-4.78-1.23-3.91-3.88-7.26-8-10.11-1.9-1.42-3.35-2.06-4.33-1.92a2.13,2.13,0,0,0-1.45.7c-2.79,1.76-5.11,7.17-6.92,16.22s-3.33,19-4.56,29.69-2.23,20.92-2.9,30.72S766.61,442,766.36,445a65,65,0,0,0-.09,10.47,8.18,8.18,0,0,0,2.74,5,14.18,14.18,0,0,0,8.46,6,18.85,18.85,0,0,0,3.63.5,3.69,3.69,0,0,0,1.76-1.81,2,2,0,0,0,.22-.5c.34-1.07,1.37-4.08,3.08-9.08q2.39-8.46,5.58-18.6a214.76,214.76,0,0,1,7.63-20.42c3-6.84,6.11-13.4,9.52-19.63a99.12,99.12,0,0,1,10.75-16.25c2.29-3.05,4.78-6,7.43-8.94a15.37,15.37,0,0,1,9.47-5.11,17.41,17.41,0,0,1,5.08-.2q5.11.3,9.83,4.75c3.74,2.54,5.89,3.44,6.48,2.68.61-.42.61-1.53,0-3.32a15.78,15.78,0,0,0-3.27-5.39,55.07,55.07,0,0,0-12.34-10A23.16,23.16,0,0,0,826.9,352.14Z"/><path d="M865,418.39a17.79,17.79,0,0,0,7.27,5.47c.36.17.72.34,1.06.48a15.75,15.75,0,0,0,7.76,1.28,8.48,8.48,0,0,0,3.46-.92,32.56,32.56,0,0,0,3.19-3.18,46.93,46.93,0,0,0,4.72-7.15c1.95-3.47,4.47-8.08,7.51-13.88s7-13.52,12-23.27c2.8-5.08,5.06-9.49,6.82-13.26s2.79-5.67,3.13-5.7a8.82,8.82,0,0,1-.2,2.57,28,28,0,0,1-.36,5.61c-.06,2.4-.09,4.86-.14,7.4a49.83,49.83,0,0,0,.25,6.31c0,8.83.56,15.2,1.53,19.13a16,16,0,0,0,5.39,9,19.59,19.59,0,0,0,4.61,2.48,10,10,0,0,0,4.95.95c2-.25,2.51-1.65,1.53-4.24a19.11,19.11,0,0,1-.75-6.26q0-3.86,1.14-20.22c.42-5.14.7-10.58.84-16.37s.36-11.14.64-16.08.51-9.22.76-12.79a50.74,50.74,0,0,0,.19-6.9l-.72-6c-.95-2.26-3-4.38-6.09-6.39a17.48,17.48,0,0,0-9.75-2.91l-1.51.2a4.36,4.36,0,0,0-2.82,1.84l-1.39,1.2-1.23-1.9a13.93,13.93,0,0,0-5.48-5.44A20.09,20.09,0,0,0,905,306.4a12.63,12.63,0,0,0-4.07,0c-3,.36-6.09,2.85-9.27,7.46a91,91,0,0,0-9.08,17.59,218.49,218.49,0,0,0-7.9,23.29c-2.41,8.44-4.47,16.56-6.26,24.38a207.54,207.54,0,0,0-3.8,21.28c-.78,6.37-1,10.9-.7,13.58A15,15,0,0,0,865,418.39Zm25.61-44.74a44.59,44.59,0,0,1,1.23-5c.62-1.93,1.23-3.94,1.85-6.06s1.14-3.86,1.64-5.28a115.22,115.22,0,0,1,4.11-12.43c2.07-5.5,3.49-9.13,4.3-10.92l.75-2.12.76,1.92c.05.67.17,1.43.25,2.27a8.57,8.57,0,0,0,.84,2.7l.86,2.94L899,357.92q-3.72,7.08-6.2,11.93a43.76,43.76,0,0,0-2.37,5.08c.06-.42.14-.84.22-1.26Z"/><path d="M967.74,375.53a46.7,46.7,0,0,0,8.35,5.57,16.86,16.86,0,0,0,9.55,1.93,16.24,16.24,0,0,0,8.78-3.84,28.54,28.54,0,0,0,4.32-5.46,38,38,0,0,0,2.85-4.82c.18-1.7-1.35-3.75-4.61-6.17s-6.24-3.65-9-3.75l-2.06-.31-3.2,3.84-2.51,3q-1.15,1.37-1.65,1.41c-.61.74-1,.59-1.05-.41q-.69-1.95-1.07-9a65.45,65.45,0,0,1,.21-11.68A191.54,191.54,0,0,1,983,312.07q4.43-15.35,11.2-24.57l2.24-3.25.82,3.47c1,3.3,3.15,6.81,6.53,10.56s6.91,5.46,10.6,5.12q4.51-.4,1.55-5.21a6.22,6.22,0,0,1-.75-2.72,32.48,32.48,0,0,0-.93-4.73c-1.29-6.63-2.7-11.07-4.25-13.29a25.79,25.79,0,0,0-6.19-6.79,23,23,0,0,0-8-4.09q-1.61-.87-5.62-.5-3.53.31-4.93,1.46-4.35,2.42-8.83,8.9a75.57,75.57,0,0,0-8,15.42,140.39,140.39,0,0,0-6,20,161.41,161.41,0,0,0-3.5,22.87q-1.61,15.86.51,25.29A30.5,30.5,0,0,0,967.74,375.53Z"/><path d="M1009.8,230.3a30,30,0,0,0,7.23,1.82,40.75,40.75,0,0,0,6,.72c1.76-.56,3.1-3,4-7.23s.86-7.74-.23-10.47l-.61-2.16-5.17-1.48c-1.48-.41-2.85-.78-4.07-1.14s-1.93-.67-2.1-1c-.06,0-.08,0-.08,0-.92-.26-.92-.67,0-1.18,1.09-1,3.86-2.68,8.41-5,4.22-2.15,32.73-12.84,39-15-16.62,69.06-26,114.31-25.56,141a60.41,60.41,0,0,0,1.18,13.8,30.29,30.29,0,0,0,8.24,15.47,46.55,46.55,0,0,0,8.37,5.58,16.87,16.87,0,0,0,9.56,1.93,16.4,16.4,0,0,0,8.76-3.85,28.44,28.44,0,0,0,4.31-5.45,38.85,38.85,0,0,0,2.84-4.8c.2-1.71-1.34-3.77-4.58-6.18s-6.25-3.65-9-3.77l-2-.3-3.21,3.82c-.89,1.09-1.73,2.13-2.51,3s-1.31,1.4-1.65,1.42c0,0,0,.06-.06.06-.55.67-.89.5-1-.48-.45-1.28-.84-4.3-1.09-9a66.16,66.16,0,0,1,.22-11.67,192.13,192.13,0,0,1,6.31-33.76c.34-1.09.67-2.18,1-3.22.75-4.49,1.62-9.38,2.63-14.71,1.67-8.91,3.63-18.35,5.75-28.18,1.56-7.18,3.24-14.58,5-22.09,3.77-16.2,7.82-33,12-49.8q6.33-2.52,12.71-4.92c1.17-.41,2.35-.86,3.55-1.28,9.44-3.46,19.29-7.79,29.07-11.37,3.35-1.06,6.62-2.17,9.8-3.26a1.29,1.29,0,0,1,.2-.09c2.37-.84,4.69-1.67,7-2.51,10.14-3.74,16-7.46,17.46-11a2.42,2.42,0,0,0,.53-1.79c0-1.15-1.06-2.68-3-4.61-3.77-3.91-7.82-6.34-12.17-7.18-.31-.08-.65-.14-1-.19-1.82-.34-3.44.36-4.89,2a4.64,4.64,0,0,1-.36.44c-1.09,1.54-4.11,3.24-9.08,5.2-2.6.78-6.45,2-9.05,2.88-11.5,3.54-23,7.45-34.29,11.59-.11,0-1,.39-1.4.53-.58.22-1.17.44-1.73.67l.11-.56c1.48-5.78,2.93-11.06,4.41-15.84s2.88-7.71,4.19-8.77c.12-.11.26-.22.37-.33a4.31,4.31,0,0,0,1.45-4.3c-.06-.28-.14-.53-.22-.81a19.69,19.69,0,0,0-6.79-10c-1.76-1.59-3.16-2.4-4.13-2.35a2,2,0,0,0-1.48.56q-4.48,2.22-8.47,15.53c-2.68,8.85-5.11,18.54-7.37,29.1-.39,1.76-.75,3.52-1.12,5.25-1,.42-2,.78-2.93,1.23-14.44,6-28.68,12.6-42.64,19.61a63.64,63.64,0,0,0-13,7.2,32.65,32.65,0,0,0-11.59,14.86,50.66,50.66,0,0,0-1.84,10.69,18.06,18.06,0,0,0,2.32,10.23A17.54,17.54,0,0,0,1009.8,230.3Z"/></g></g></svg>