<?xml version="1.0" encoding="UTF-8"?>
<svg width="337px" height="54px" viewBox="0 0 337 54" version="1.1" xmlns="http://www.w3.org/2000/svg" xmlns:xlink="http://www.w3.org/1999/xlink">
    <title>@Bstract</title>
    <g id="Page-1" stroke="none" stroke-width="1" fill="none" fill-rule="evenodd">
        <path d="M28.6275909,53.9705455 C31.0964394,53.9705455 33.5556439,53.719803 36.0052045,53.2183182 C38.4547652,52.7168333 40.5475,52.0417576 42.2834091,51.1930909 L42.2834091,51.1930909 L40.1424545,45.0016818 C36.5934848,46.6990152 32.755197,47.5476818 28.6275909,47.5476818 C24.5771364,47.5476818 20.9992348,46.6893712 17.8938864,44.97275 C14.7885379,43.2561288 12.387197,40.8547879 10.6898636,37.7687273 C8.9925303,34.6826667 8.14386364,31.1915606 8.14386364,27.2954091 C8.14386364,23.4764091 9.01181818,20.0335227 10.7477273,16.96675 C12.4836364,13.8999773 14.923553,11.4986364 18.0674773,9.76272727 C21.2114015,8.02681818 24.8085909,7.15886364 28.8590455,7.15886364 C32.9480758,7.15886364 36.5549091,7.95931061 39.6795455,9.56020455 C42.8041818,11.1610985 45.2248106,13.3888485 46.9414318,16.2434545 C48.658053,19.0980606 49.5163636,22.3577121 49.5163636,26.0224091 C49.5163636,32.0016515 48.3012273,34.9912727 45.8709545,34.9912727 C45.0994394,34.9912727 44.4822273,34.7212424 44.0193182,34.1811818 C43.5564091,33.6411212 43.3249545,32.7538788 43.3249545,31.5194545 L43.3249545,31.5194545 L43.3249545,13.8710455 L33.8931818,13.8710455 L33.8931818,16.7063636 C31.9258182,14.5075455 29.244803,13.4081364 25.8501364,13.4081364 C23.5355909,13.4081364 21.3946364,14.0060606 19.4272727,15.2019091 C17.4599091,16.3977576 15.8975909,18.0950909 14.7403182,20.2939091 C13.5830455,22.4927273 13.0044091,25.0194394 13.0044091,27.8740455 C13.0044091,30.7286515 13.5926894,33.2553636 14.76925,35.4541818 C15.9458106,37.653 17.5177727,39.3599773 19.4851364,40.5751136 C21.4525,41.79025 23.5741667,42.3978182 25.8501364,42.3978182 C30.209197,42.3978182 33.3338333,40.7197727 35.2240455,37.3636818 C35.9184091,39.0224394 36.9985303,40.2761515 38.4644091,41.1248182 C39.9302879,41.9734848 41.6854848,42.3978182 43.73,42.3978182 C46.1988485,42.3978182 48.3880227,41.7516742 50.2975227,40.4593864 C52.2070227,39.1670985 53.7114773,37.2768864 54.8108864,34.78875 C55.9102955,32.3006136 56.46,29.3206364 56.46,25.8488182 C56.46,21.1425758 55.2930833,16.8799545 52.95925,13.0609545 C50.6254167,9.24195455 47.3657652,6.23304545 43.1802955,4.03422727 C38.9948258,1.83540909 34.2210758,0.736 28.8590455,0.736 C23.2269848,0.736 18.2603561,1.89327273 13.9591591,4.20781818 C9.65796212,6.52236364 6.33080303,9.6952197 3.97768182,13.7263864 C1.62456061,17.757553 0.448,22.2805606 0.448,27.2954091 C0.448,32.3488333 1.61491667,36.9007727 3.94875,40.9512273 C6.28258333,45.0016818 9.58081061,48.1841818 13.8434318,50.4987273 C18.106053,52.8132727 23.0341061,53.9705455 28.6275909,53.9705455 Z M89.848,52 C96.568,52 101.704,50.8 105.256,48.4 C108.808,46 110.584,42.592 110.584,38.176 C110.584,35.152 109.768,32.572 108.136,30.436 C106.504,28.3 104.248,26.728 101.368,25.72 C103.528,24.616 105.196,23.116 106.372,21.22 C107.548,19.324 108.136,17.176 108.136,14.776 C108.136,10.744 106.456,7.54 103.096,5.164 C99.736,2.788 94.84,1.6 88.408,1.6 L88.408,1.6 L62.632,1.6 L62.632,52 L89.848,52 Z M86.536,21.616 L76.744,21.616 L76.744,11.896 L86.536,11.896 C91.336,11.896 93.736,13.504 93.736,16.72 C93.736,19.984 91.336,21.616 86.536,21.616 L86.536,21.616 Z M88.696,41.704 L76.744,41.704 L76.744,31.48 L88.696,31.48 C93.688,31.48 96.184,33.184 96.184,36.592 C96.184,40 93.688,41.704 88.696,41.704 L88.696,41.704 Z M131.536,52.648 C135.616,52.648 139.108,52.096 142.012,50.992 C144.916,49.888 147.112,48.364 148.6,46.42 C150.088,44.476 150.832,42.28 150.832,39.832 C150.832,36.856 150.052,34.54 148.492,32.884 C146.932,31.228 145.096,30.088 142.984,29.464 C140.872,28.84 138.208,28.288 134.992,27.808 C132.448,27.424 130.624,27.052 129.52,26.692 C128.416,26.332 127.864,25.696 127.864,24.784 C127.864,23.968 128.368,23.308 129.376,22.804 C130.384,22.3 131.968,22.048 134.128,22.048 C138.16,22.048 141.904,23.008 145.36,24.928 L145.36,24.928 L149.464,15.64 C147.592,14.584 145.264,13.768 142.48,13.192 C139.696,12.616 136.888,12.328 134.056,12.328 C130.072,12.328 126.652,12.892 123.796,14.02 C120.94,15.148 118.768,16.684 117.28,18.628 C115.792,20.572 115.048,22.792 115.048,25.288 C115.048,28.312 115.84,30.664 117.424,32.344 C119.008,34.024 120.892,35.176 123.076,35.8 C125.26,36.424 127.912,36.928 131.032,37.312 C133.48,37.648 135.268,37.996 136.396,38.356 C137.524,38.716 138.088,39.328 138.088,40.192 C138.088,41.056 137.62,41.716 136.684,42.172 C135.748,42.628 134.176,42.856 131.968,42.856 C129.568,42.856 127.144,42.532 124.696,41.884 C122.248,41.236 120.136,40.36 118.36,39.256 L118.36,39.256 L114.256,48.616 C116.176,49.816 118.72,50.788 121.888,51.532 C125.056,52.276 128.272,52.648 131.536,52.648 Z M174.16,52.648 C176.032,52.648 177.796,52.456 179.452,52.072 C181.108,51.688 182.512,51.136 183.664,50.416 L183.664,50.416 L180.28,40.84 C179.08,41.656 177.688,42.064 176.104,42.064 C174.856,42.064 173.86,41.668 173.116,40.876 C172.372,40.084 172,38.992 172,37.6 L172,37.6 L172,24.64 L180.928,24.64 L180.928,14.416 L172,14.416 L172,4.264 L158.32,4.264 L158.32,14.416 L152.632,14.416 L152.632,24.64 L158.32,24.64 L158.32,37.744 C158.32,42.688 159.688,46.408 162.424,48.904 C165.16,51.4 169.072,52.648 174.16,52.648 Z M202.6,52 L202.6,34.072 C202.6,30.808 203.428,28.384 205.084,26.8 C206.74,25.216 209.032,24.424 211.96,24.424 C212.776,24.424 213.808,24.496 215.056,24.64 L215.056,24.64 L215.056,12.328 C212.176,12.328 209.62,12.772 207.388,13.66 C205.156,14.548 203.344,15.88 201.952,17.656 L201.952,17.656 L201.952,12.976 L188.92,12.976 L188.92,52 L202.6,52 Z M233.128,52.648 C238.84,52.648 242.68,50.752 244.648,46.96 L244.648,46.96 L244.648,52 L257.392,52 L257.392,30.328 C257.392,24.232 255.688,19.708 252.28,16.756 C248.872,13.804 243.928,12.328 237.448,12.328 C234.328,12.328 231.22,12.724 228.124,13.516 C225.028,14.308 222.4,15.424 220.24,16.864 L220.24,16.864 L224.848,26.152 C226.192,25.096 227.824,24.268 229.744,23.668 C231.664,23.068 233.56,22.768 235.432,22.768 C240.712,22.768 243.472,24.832 243.712,28.96 L243.712,28.96 L235.936,28.96 C230.032,28.96 225.664,29.98 222.832,32.02 C220,34.06 218.584,36.928 218.584,40.624 C218.584,42.928 219.148,44.98 220.276,46.78 C221.404,48.58 223.072,50.008 225.28,51.064 C227.488,52.12 230.104,52.648 233.128,52.648 Z M236.944,44.008 C235.36,44.008 234.112,43.648 233.2,42.928 C232.288,42.208 231.832,41.248 231.832,40.048 C231.832,37.408 233.824,36.088 237.808,36.088 L237.808,36.088 L243.712,36.088 L243.712,39.472 C243.184,40.96 242.32,42.088 241.12,42.856 C239.92,43.624 238.528,44.008 236.944,44.008 Z M285.976,52.648 C290.392,52.648 294.208,51.7 297.424,49.804 C300.64,47.908 302.92,45.28 304.264,41.92 L304.264,41.92 L293.68,36.52 C291.904,40.024 289.312,41.776 285.904,41.776 C283.456,41.776 281.428,40.948 279.82,39.292 C278.212,37.636 277.408,35.344 277.408,32.416 C277.408,29.536 278.212,27.28 279.82,25.648 C281.428,24.016 283.456,23.2 285.904,23.2 C289.312,23.2 291.904,24.952 293.68,28.456 L293.68,28.456 L304.264,23.056 C302.92,19.696 300.64,17.068 297.424,15.172 C294.208,13.276 290.392,12.328 285.976,12.328 C281.656,12.328 277.792,13.18 274.384,14.884 C270.976,16.588 268.324,18.964 266.428,22.012 C264.532,25.06 263.584,28.528 263.584,32.416 C263.584,36.304 264.532,39.784 266.428,42.856 C268.324,45.928 270.976,48.328 274.384,50.056 C277.792,51.784 281.656,52.648 285.976,52.648 Z M326.872,52.648 C328.744,52.648 330.508,52.456 332.164,52.072 C333.82,51.688 335.224,51.136 336.376,50.416 L336.376,50.416 L332.992,40.84 C331.792,41.656 330.4,42.064 328.816,42.064 C327.568,42.064 326.572,41.668 325.828,40.876 C325.084,40.084 324.712,38.992 324.712,37.6 L324.712,37.6 L324.712,24.64 L333.64,24.64 L333.64,14.416 L324.712,14.416 L324.712,4.264 L311.032,4.264 L311.032,14.416 L305.344,14.416 L305.344,24.64 L311.032,24.64 L311.032,37.744 C311.032,42.688 312.4,46.408 315.136,48.904 C317.872,51.4 321.784,52.648 326.872,52.648 Z" id="@Bstract" fill="#FFFFFF" fill-rule="nonzero"></path>
    </g>
</svg>